<?xml version="1.0" encoding="utf-8"?>
<!-- Generator: Adobe Illustrator 15.0.0, SVG Export Plug-In . SVG Version: 6.00 Build 0)  -->
<!DOCTYPE svg PUBLIC "-//W3C//DTD SVG 1.1//EN" "http://www.w3.org/Graphics/SVG/1.1/DTD/svg11.dtd">
<svg version="1.1" xmlns="http://www.w3.org/2000/svg" xmlns:xlink="http://www.w3.org/1999/xlink" x="0px" y="0px" width="2560px"
	 height="1440px" viewBox="0 0 2560 1440" enable-background="new 0 0 2560 1440" xml:space="preserve">
<g id="Layer_1" display="none">
	
		<rect x="-38.552" y="-21.035" display="inline" fill="#C9CAD3" stroke="#000000" stroke-miterlimit="10" width="2643.105" height="1487.933"/>
	<g display="inline" opacity="0.3">
		<g>
			<g>
				<circle fill="#FFFFFF" cx="26" cy="280" r="587"/>
			</g>
		</g>
	</g>
	<g display="inline" opacity="0.3">
		<g>
			<g>
				<circle fill="#FFFFFF" cx="394" cy="316" r="587"/>
			</g>
		</g>
	</g>
	<circle display="inline" opacity="0.3" fill="#FFFFFF" cx="790" cy="336" r="587"/>
	<circle display="inline" opacity="0.3" fill="#FFFFFF" cx="1195.996" cy="396.997" r="587"/>
	<circle display="inline" opacity="0.3" fill="#FFFFFF" cx="1560.993" cy="454" r="587"/>
	<circle display="inline" opacity="0.3" fill="#FFFFFF" cx="1948" cy="538" r="587"/>
	<circle display="inline" opacity="0.3" fill="#FFFFFF" cx="2332" cy="704" r="587"/>
	<circle display="inline" opacity="0.3" fill="#FFFFFF" cx="2588" cy="966" r="587"/>
	<circle display="inline" opacity="0.3" fill="#FFFFFF" cx="2830" cy="1322" r="587"/>
	<polygon display="inline" fill="none" stroke="#000000" stroke-miterlimit="10" points="0,716.428 414.058,755.259 
		790.674,784.742 1109.154,828.726 1489.989,905.171 1815.481,983.115 2021.53,1120.433 2244.182,1284.467 2560,1440 2560,409 
		2514.469,383.566 2077.512,174.884 1654.007,29.826 1271.375,0 0,0 	"/>
</g>
<g id="Layer_1_copy">
	<path fill="#C9CAD3" stroke="#000000" stroke-miterlimit="10" d="M2031.427,1202.812c-49.427-25.761-94.591-58.572-134.15-97.109
		c-101.034-4.341-195.232-35.049-275.862-85.443c-24.15,3.132-48.773,4.755-73.775,4.755c-93.627,0-181.957-22.652-259.817-62.765
		c-30.367,5.02-61.547,7.63-93.336,7.63c-99.958,0-193.881-25.818-275.47-71.141c-37.867,7.953-77.119,12.145-117.351,12.145
		c-77.448,0-151.27-15.504-218.542-43.565c-52.104,15.747-107.365,24.223-164.608,24.223c-82.081,0-160.092-17.416-230.547-48.736
		c-40.376,9.104-82.381,13.917-125.511,13.917c-21.109,0-41.946-1.162-62.457-3.405v583.626h2224.969
		c-1.297-5.103-2.531-10.229-3.688-15.387C2140.613,1366.449,2074.886,1291.096,2031.427,1202.812z"/>
	<path fill="#C9CAD3" stroke="#000000" stroke-miterlimit="10" d="M2557.334,196.128V-2.186h-461.555
		c84.58,27.129,160.521,73.535,222.644,134.049C2404.396,135.555,2485.408,158.364,2557.334,196.128z"/>
	<g opacity="0.7">
		<g>
			<g>
				<path fill="#C9CAD3" d="M187.968,842.804c70.455,31.32,148.466,48.736,230.547,48.736c57.243,0,112.505-8.476,164.608-24.223
					c-68.712-28.661-130.591-70.421-182.502-122.17C338.31,791.383,266.197,825.161,187.968,842.804z"/>
			</g>
		</g>
		<g>
			<g>
				<path fill="none" stroke="#000000" stroke-miterlimit="10" d="M187.968,842.804c70.455,31.32,148.466,48.736,230.547,48.736
					c57.243,0,112.505-8.476,164.608-24.223c-68.712-28.661-130.591-70.421-182.502-122.17
					C338.31,791.383,266.197,825.161,187.968,842.804z"/>
			</g>
		</g>
	</g>
	<g opacity="0.7">
		<g>
			<g>
				<path fill="#C9CAD3" d="M187.968,842.804C116.251,810.922,52.371,764.618,0,707.584v145.731
					c20.511,2.243,41.348,3.405,62.457,3.405C105.587,856.721,147.592,851.908,187.968,842.804z"/>
			</g>
		</g>
		<g>
			<g>
				<path fill="none" stroke="#000000" stroke-miterlimit="10" d="M187.968,842.804C116.251,810.922,52.371,764.618,0,707.584
					v145.731c20.511,2.243,41.348,3.405,62.457,3.405C105.587,856.721,147.592,851.908,187.968,842.804z"/>
			</g>
		</g>
	</g>
	<path opacity="0.7" fill="#C9CAD3" stroke="#000000" stroke-miterlimit="10" d="M765.011,773.659
		c-53.808,41.472-115.26,73.521-181.888,93.658c67.272,28.062,141.094,43.565,218.542,43.565c40.232,0,79.483-4.191,117.351-12.145
		C860.581,866.278,808.471,823.816,765.011,773.659z"/>
	<path display="none" opacity="0.3" fill="#FFFFFF" d="M752.117,781.121c-55.613,42.881-119.126,76.016-187.988,96.836
		C633.657,906.969,709.955,923,790,923c41.582,0,82.15-4.334,121.287-12.557C850.892,876.883,797.035,832.98,752.117,781.121z"/>
	<g opacity="0.3">
		<g>
			<g>
				<path fill="#FFFFFF" d="M626.534,402.133c0-158.247,64.779-301.36,169.26-404.319H550.122
					c50.977,85.134,80.286,184.724,80.286,291.161c0,186.911-90.359,352.719-229.787,456.173
					c51.911,51.749,113.79,93.509,182.502,122.17c66.628-20.137,128.08-52.187,181.888-93.658
					C678.736,674.085,626.534,544.203,626.534,402.133z"/>
			</g>
		</g>
	</g>
	<path opacity="0.3" fill="#C9CAD3" stroke="#000000" stroke-miterlimit="10" d="M626.534,402.133
		c0-158.247,64.779-301.36,169.26-404.319H550.122c50.977,85.134,80.286,184.724,80.286,291.161
		c0,186.911-90.359,352.719-229.787,456.173c51.911,51.749,113.79,93.509,182.502,122.17
		c66.628-20.137,128.08-52.187,181.888-93.658C678.736,674.085,626.534,544.203,626.534,402.133z"/>
	<g opacity="0.3">
		<g>
			<g>
				<path fill="#C9CAD3" d="M235.59,296.741c9.062-111.969,50.627-214.754,115.25-298.927H155.362
					c50.977,85.134,80.286,184.724,80.286,291.161C235.648,291.568,235.624,294.156,235.59,296.741z"/>
			</g>
		</g>
		<g>
			<g>
				<path fill="none" stroke="#000000" stroke-miterlimit="10" d="M235.59,296.741c9.062-111.969,50.627-214.754,115.25-298.927
					H155.362c50.977,85.134,80.286,184.724,80.286,291.161C235.648,291.568,235.624,294.156,235.59,296.741z"/>
			</g>
		</g>
	</g>
	<g opacity="0.3">
		<g>
			<g>
				<path fill="#C9CAD3" d="M400.622,745.147c-103.106-102.786-166.908-244.949-166.908-402.01c0-2.63,0.024-5.254,0.06-7.875
					c-12.92,160.041-92.232,301.329-210.382,396.328c47.59,46.087,103.21,83.935,164.577,111.214
					C266.197,825.161,338.31,791.383,400.622,745.147z"/>
			</g>
		</g>
		<g>
			<g>
				<path fill="none" stroke="#000000" stroke-miterlimit="10" d="M400.622,745.147
					c-103.106-102.786-166.908-244.949-166.908-402.01c0-2.63,0.024-5.254,0.06-7.875
					c-12.92,160.041-92.232,301.329-210.382,396.328c47.59,46.087,103.21,83.935,164.577,111.214
					C266.197,825.161,338.31,791.383,400.622,745.147z"/>
			</g>
		</g>
	</g>
	<g opacity="0.3">
		<g>
			<g>
				<path fill="#FFFFFF" d="M235.59,296.741c-1.031,12.726-1.641,25.571-1.817,38.521
					C234.801,322.534,235.416,309.691,235.59,296.741z"/>
			</g>
		</g>
	</g>
	<path fill="#C9CAD3" stroke="#000000" stroke-miterlimit="10" d="M1110.458,819.697c-57.484,37.295-122.136,64.486-191.442,79.041
		c81.589,45.322,175.512,71.141,275.47,71.141c31.789,0,62.969-2.61,93.336-7.63
		C1219.454,927.028,1159.165,878.342,1110.458,819.697z"/>
	<path opacity="0.3" fill="#FFFFFF" d="M1110.458,819.697c-57.484,37.295-122.136,64.486-191.442,79.041
		c81.589,45.322,175.512,71.141,275.47,71.141c31.789,0,62.969-2.61,93.336-7.63
		C1219.454,927.028,1159.165,878.342,1110.458,819.697z"/>
	<path fill="#C9CAD3" stroke="#000000" stroke-miterlimit="10" d="M979.687,457.267c0-188.907,92.311-356.246,234.284-459.453
		H883.537c64.846,92.253,102.93,204.663,102.93,325.979c0,183.16-86.77,346.053-221.455,449.866
		c43.459,50.157,95.569,92.619,154.004,125.079c69.306-14.555,133.958-41.746,191.442-79.041
		C1028.793,721.37,979.687,595.053,979.687,457.267z"/>
	<path opacity="0.3" fill="#FFFFFF" d="M979.687,457.267c0-188.907,92.311-356.246,234.284-459.453H883.537
		c64.846,92.253,102.93,204.663,102.93,325.979c0,183.16-86.77,346.053-221.455,449.866
		c43.459,50.157,95.569,92.619,154.004,125.079c69.306-14.555,133.958-41.746,191.442-79.041
		C1028.793,721.37,979.687,595.053,979.687,457.267z"/>
	<path opacity="0.3" fill="#FFFFFF" d="M979.687,457.267c0-188.907,92.311-356.246,234.284-459.453H883.537
		c64.846,92.253,102.93,204.663,102.93,325.979c0,183.16-86.77,346.053-221.455,449.866
		c43.459,50.157,95.569,92.619,154.004,125.079c69.306-14.555,133.958-41.746,191.442-79.041
		C1028.793,721.37,979.687,595.053,979.687,457.267z"/>
	<path fill="#C9CAD3" stroke="#000000" stroke-miterlimit="10" d="M1478.938,893.639c-57.992,33.61-122.476,57.265-191.117,68.61
		c77.86,40.112,166.19,62.765,259.817,62.765c25.002,0,49.625-1.623,73.775-4.755C1567.075,986.298,1518.9,943.405,1478.938,893.639
		z"/>
	<path opacity="0.3" fill="#FFFFFF" d="M1478.938,893.639c-57.992,33.61-122.476,57.265-191.117,68.61
		c77.86,40.112,166.19,62.765,259.817,62.765c25.002,0,49.625-1.623,73.775-4.755C1567.075,986.298,1518.9,943.405,1478.938,893.639
		z"/>
	<path fill="#C9CAD3" stroke="#000000" stroke-miterlimit="10" d="M1637.627,47.01c34.768-20.151,71.872-36.711,110.805-49.196
		h-155.25C1608.926,13.33,1623.771,29.756,1637.627,47.01z"/>
	<path opacity="0.3" fill="#FFFFFF" d="M1637.627,47.01c34.768-20.151,71.872-36.711,110.805-49.196h-155.25
		C1608.926,13.33,1623.771,29.756,1637.627,47.01z"/>
	<path fill="#C9CAD3" stroke="#000000" stroke-miterlimit="10" d="M1354.135,538.512c0-209.945,114.001-393.267,283.492-491.502
		c-13.855-17.254-28.701-33.68-44.445-49.196h-340.7c73.457,95.677,117.135,215.396,117.135,345.323
		c0,199.731-103.181,375.361-259.158,476.56c48.707,58.645,108.996,107.331,177.363,142.552c68.642-11.346,133.125-35,191.117-68.61
		C1400.854,796.397,1354.135,672.909,1354.135,538.512z"/>
	<path opacity="0.3" fill="#FFFFFF" d="M1354.135,538.512c0-209.945,114.001-393.267,283.492-491.502
		c-13.855-17.254-28.701-33.68-44.445-49.196h-340.7c73.457,95.677,117.135,215.396,117.135,345.323
		c0,199.731-103.181,375.361-259.158,476.56c48.707,58.645,108.996,107.331,177.363,142.552c68.642-11.346,133.125-35,191.117-68.61
		C1400.854,796.397,1354.135,672.909,1354.135,538.512z"/>
	<path opacity="0.3" fill="#FFFFFF" d="M1354.135,538.512c0-209.945,114.001-393.267,283.492-491.502
		c-13.855-17.254-28.701-33.68-44.445-49.196h-340.7c73.457,95.677,117.135,215.396,117.135,345.323
		c0,199.731-103.181,375.361-259.158,476.56c48.707,58.645,108.996,107.331,177.363,142.552c68.642-11.346,133.125-35,191.117-68.61
		C1400.854,796.397,1354.135,672.909,1354.135,538.512z"/>
	<path fill="#C9CAD3" stroke="#000000" stroke-miterlimit="10" d="M2047.387,187.31c74.49-35.881,158.016-55.989,246.238-55.989
		c8.311,0,16.575,0.188,24.798,0.542C2256.3,71.349,2180.359,24.943,2095.779-2.186h-214.461
		C1949.845,47.634,2006.8,112.391,2047.387,187.31z"/>
	<path opacity="0.3" fill="#FFFFFF" d="M2047.387,187.31c74.49-35.881,158.016-55.989,246.238-55.989
		c8.311,0,16.575,0.188,24.798,0.542C2256.3,71.349,2180.359,24.943,2095.779-2.186h-214.461
		C1949.845,47.634,2006.8,112.391,2047.387,187.31z"/>
	<path fill="#C9CAD3" stroke="#000000" stroke-miterlimit="10" d="M1793.864,969.02c-53.378,25.711-111.393,43.321-172.45,51.239
		c80.63,50.395,174.828,81.103,275.862,85.443C1856.298,1065.783,1821.332,1019.728,1793.864,969.02z"/>
	<path opacity="0.3" fill="#FFFFFF" d="M1793.864,969.02c-53.378,25.711-111.393,43.321-172.45,51.239
		c80.63,50.395,174.828,81.103,275.862,85.443C1856.298,1065.783,1821.332,1019.728,1793.864,969.02z"/>
	<path fill="#C9CAD3" stroke="#000000" stroke-miterlimit="10" d="M1725.674,699.067c0-225.367,131.358-420.063,321.713-511.757
		c-40.587-74.919-97.542-139.676-166.068-189.496h-132.887c-38.933,12.485-76.037,29.045-110.805,49.196
		c78.088,97.241,124.809,220.725,124.809,355.124c0,209.949-114.001,393.271-283.497,491.505
		c39.962,49.767,88.137,92.659,142.476,126.62c61.058-7.918,119.072-25.528,172.45-51.239
		C1750.372,888.732,1725.674,796.783,1725.674,699.067z"/>
	<path opacity="0.3" fill="#FFFFFF" d="M1725.674,699.067c0-225.367,131.358-420.063,321.713-511.757
		c-40.587-74.919-97.542-139.676-166.068-189.496h-132.887c-38.933,12.485-76.037,29.045-110.805,49.196
		c78.088,97.241,124.809,220.725,124.809,355.124c0,209.949-114.001,393.271-283.497,491.505
		c39.962,49.767,88.137,92.659,142.476,126.62c61.058-7.918,119.072-25.528,172.45-51.239
		C1750.372,888.732,1725.674,796.783,1725.674,699.067z"/>
	<path opacity="0.3" fill="#FFFFFF" d="M1725.674,699.067c0-225.367,131.358-420.063,321.713-511.757
		c-40.587-74.919-97.542-139.676-166.068-189.496h-132.887c-38.933,12.485-76.037,29.045-110.805,49.196
		c78.088,97.241,124.809,220.725,124.809,355.124c0,209.949-114.001,393.271-283.497,491.505
		c39.962,49.767,88.137,92.659,142.476,126.62c61.058-7.918,119.072-25.528,172.45-51.239
		C1750.372,888.732,1725.674,796.783,1725.674,699.067z"/>
	<path fill="#C9CAD3" stroke="#000000" stroke-miterlimit="10" d="M2470.168,389.145c23.308-2.911,47.052-4.418,71.149-4.418
		c5.356,0,10.694,0.084,16.017,0.232V196.128c-71.926-37.764-152.938-60.573-238.911-64.265
		C2389.964,201.552,2443.178,289.949,2470.168,389.145z"/>
	<path opacity="0.3" fill="#FFFFFF" d="M2470.168,389.145c23.308-2.911,47.052-4.418,71.149-4.418
		c5.356,0,10.694,0.084,16.017,0.232V196.128c-71.926-37.764-152.938-60.573-238.911-64.265
		C2389.964,201.552,2443.178,289.949,2470.168,389.145z"/>
	<path fill="#C9CAD3" stroke="#000000" stroke-miterlimit="10" d="M1922.086,1106.258c-8.314,0-16.583-0.201-24.81-0.556
		c39.56,38.537,84.724,71.349,134.15,97.109c-15.785-32.069-28.639-65.843-38.195-100.972
		C1969.926,1104.752,1946.181,1106.258,1922.086,1106.258z"/>
	<path opacity="0.3" fill="#FFFFFF" d="M1922.086,1106.258c-8.314,0-16.583-0.201-24.81-0.556
		c39.56,38.537,84.724,71.349,134.15,97.109c-15.785-32.069-28.639-65.843-38.195-100.972
		C1969.926,1104.752,1946.181,1106.258,1922.086,1106.258z"/>
	<path fill="#C9CAD3" stroke="#000000" stroke-miterlimit="10" d="M2098.145,597.377
		c90.098-112.217,221.963-189.484,372.023-208.232c-26.99-99.195-80.204-187.592-151.745-257.281
		c-8.223-0.354-16.487-0.542-24.798-0.542c-88.223,0-171.748,20.108-246.238,55.989c43.494,80.291,68.203,172.237,68.203,269.957
		C2115.59,505.623,2109.525,552.56,2098.145,597.377z"/>
	<path opacity="0.3" fill="#FFFFFF" d="M2098.145,597.377c90.098-112.217,221.963-189.484,372.023-208.232
		c-26.99-99.195-80.204-187.592-151.745-257.281c-8.223-0.354-16.487-0.542-24.798-0.542c-88.223,0-171.748,20.108-246.238,55.989
		c43.494,80.291,68.203,172.237,68.203,269.957C2115.59,505.623,2109.525,552.56,2098.145,597.377z"/>
	<path opacity="0.3" fill="#FFFFFF" d="M2098.145,597.377c90.098-112.217,221.963-189.484,372.023-208.232
		c-26.99-99.195-80.204-187.592-151.745-257.281c-8.223-0.354-16.487-0.542-24.798-0.542c-88.223,0-171.748,20.108-246.238,55.989
		c43.494,80.291,68.203,172.237,68.203,269.957C2115.59,505.623,2109.525,552.56,2098.145,597.377z"/>
	<path fill="#C9CAD3" stroke="#000000" stroke-miterlimit="10" d="M1993.231,1101.84c-12.95-47.594-19.865-97.673-19.865-149.366
		c0-48.357,6.056-95.298,17.436-140.114c-52.859,65.834-120.085,119.645-196.938,156.66
		c27.468,50.708,62.434,96.764,103.412,136.683c8.227,0.354,16.495,0.556,24.81,0.556
		C1946.181,1106.258,1969.926,1104.752,1993.231,1101.84z"/>
	<path opacity="0.3" fill="#FFFFFF" d="M1993.231,1101.84c-12.95-47.594-19.865-97.673-19.865-149.366
		c0-48.357,6.056-95.298,17.436-140.114c-52.859,65.834-120.085,119.645-196.938,156.66
		c27.468,50.708,62.434,96.764,103.412,136.683c8.227,0.354,16.495,0.556,24.81,0.556
		C1946.181,1106.258,1969.926,1104.752,1993.231,1101.84z"/>
	<path opacity="0.3" fill="#FFFFFF" d="M1993.231,1101.84c-12.95-47.594-19.865-97.673-19.865-149.366
		c0-48.357,6.056-95.298,17.436-140.114c-52.859,65.834-120.085,119.645-196.938,156.66
		c27.468,50.708,62.434,96.764,103.412,136.683c8.227,0.354,16.495,0.556,24.81,0.556
		C1946.181,1106.258,1969.926,1104.752,1993.231,1101.84z"/>
	<path fill="#C9CAD3" stroke="#000000" stroke-miterlimit="10" d="M2208.657,1260.49c-63.065-9.463-122.741-29.28-177.23-57.679
		c43.459,88.284,109.187,163.638,189.854,218.743c-9.006-40.146-13.768-81.896-13.768-124.76
		C2207.514,1284.601,2207.898,1272.493,2208.657,1260.49z"/>
	<path opacity="0.3" fill="#FFFFFF" d="M2208.657,1260.49c-63.065-9.463-122.741-29.28-177.23-57.679
		c43.459,88.284,109.187,163.638,189.854,218.743c-9.006-40.146-13.768-81.896-13.768-124.76
		C2207.514,1284.601,2207.898,1272.493,2208.657,1260.49z"/>
	<path fill="#C9CAD3" stroke="#000000" stroke-miterlimit="10" d="M2557.334,772.439v-387.48c-5.322-0.148-10.66-0.232-16.017-0.232
		c-24.098,0-47.842,1.507-71.149,4.418c12.949,47.595,19.869,97.672,19.869,149.368c0,289.471-216.716,528.336-496.806,563.328
		c9.557,35.129,22.41,68.902,38.195,100.972c54.489,28.398,114.165,48.216,177.23,57.679
		C2222.584,1039.898,2362.526,853.512,2557.334,772.439z"/>
	<path opacity="0.3" fill="#FFFFFF" d="M2557.334,772.439v-387.48c-5.322-0.148-10.66-0.232-16.017-0.232
		c-24.098,0-47.842,1.507-71.149,4.418c12.949,47.595,19.869,97.672,19.869,149.368c0,289.471-216.716,528.336-496.806,563.328
		c9.557,35.129,22.41,68.902,38.195,100.972c54.489,28.398,114.165,48.216,177.23,57.679
		C2222.584,1039.898,2362.526,853.512,2557.334,772.439z"/>
	<path opacity="0.3" fill="#FFFFFF" d="M2557.334,772.439v-387.48c-5.322-0.148-10.66-0.232-16.017-0.232
		c-24.098,0-47.842,1.507-71.149,4.418c12.949,47.595,19.869,97.672,19.869,149.368c0,289.471-216.716,528.336-496.806,563.328
		c9.557,35.129,22.41,68.902,38.195,100.972c54.489,28.398,114.165,48.216,177.23,57.679
		C2222.584,1039.898,2362.526,853.512,2557.334,772.439z"/>
	<path fill="#C9CAD3" stroke="#000000" stroke-miterlimit="10" d="M2221.281,1421.555c1.156,5.158,2.391,10.284,3.688,15.387h20.12
		C2237.021,1432.001,2229.076,1426.88,2221.281,1421.555z"/>
	<path opacity="0.3" fill="#FFFFFF" d="M2221.281,1421.555c1.156,5.158,2.391,10.284,3.688,15.387h20.12
		C2237.021,1432.001,2229.076,1426.88,2221.281,1421.555z"/>
	<path fill="#C9CAD3" stroke="#000000" stroke-miterlimit="10" d="M2557.334,1202.021c-78.803,41.375-168.519,64.792-263.709,64.792
		c-28.878,0-57.25-2.165-84.968-6.322c-0.759,12.003-1.144,24.11-1.144,36.305c0,42.863,4.762,84.613,13.768,124.76
		c7.795,5.325,15.74,10.446,23.808,15.387h312.245V1202.021z"/>
	<path opacity="0.3" fill="#FFFFFF" d="M2557.334,1202.021c-78.803,41.375-168.519,64.792-263.709,64.792
		c-28.878,0-57.25-2.165-84.968-6.322c-0.759,12.003-1.144,24.11-1.144,36.305c0,42.863,4.762,84.613,13.768,124.76
		c7.795,5.325,15.74,10.446,23.808,15.387h312.245V1202.021z"/>
	<path opacity="0.3" fill="#FFFFFF" d="M2557.334,1202.021c-78.803,41.375-168.519,64.792-263.709,64.792
		c-28.878,0-57.25-2.165-84.968-6.322c-0.759,12.003-1.144,24.11-1.144,36.305c0,42.863,4.762,84.613,13.768,124.76
		c7.795,5.325,15.74,10.446,23.808,15.387h312.245V1202.021z"/>
</g>
</svg>
